Patient4_TMGait_0pt8_01_left_08_GRF.mot
version=1
nRows=65
nColumns=19
inDegrees=no
endheader
time	F1x	F1y	F1z	M1x	M1y	M1z	F2x	F2y	F2z	M2x	M2y	M2z	EC1x	EC1y	EC1z	EC2x	EC2y	EC2z
8.16	3.9965	8.1224	-5.9926	0.46171	4.5293	3.6471	-74.0679	741.6539	-52.6655	276.3085	91.6225	848.0764	-0.0592	0.0182	-0.0073	-0.0462	0.0165	0.9585
8.1712	2.5589	6.4887	-4.0832	-0.030862	3.0622	3.6413	-67.7522	747.0253	-53.7136	277.4675	89.3067	853.585	-0.0592	0.0182	-0.0073	-0.0462	0.0165	0.9585
8.1824	1.374	5.1112	-2.4304	-0.46132	1.805	3.6361	-61.654	751.7101	-54.6791	278.2742	87.012	856.9336	-0.0592	0.0182	-0.0073	-0.0462	0.0165	0.9585
8.1936	0.48332	4.0736	-1.1535	-0.802	0.83874	3.6528	-55.9862	755.0929	-55.4625	278.5507	84.7751	857.4144	-0.0592	0.0182	-0.0073	-0.0462	0.0165	0.9585
8.2049	-0.12013	3.3772	-0.25214	-1.0537	0.15819	3.6762	-50.7395	756.7308	-55.9937	278.1923	82.5472	854.6982	-0.0592	0.0182	-0.0073	-0.0462	0.0165	0.9585
8.2161	-0.49821	2.969	0.31968	-1.2279	-0.28056	3.7127	-45.7943	756.4566	-56.1999	277.1949	80.2145	848.8284	-0.0592	0.0182	-0.0073	-0.0462	0.0165	0.9585
8.2273	-0.70528	2.7553	0.64816	-1.3336	-0.55016	3.7273	-40.9821	754.3961	-56.0436	275.6487	77.6642	840.1785	-0.0592	0.0182	-0.0073	-0.0462	0.0165	0.9585
8.2385	-0.82981	2.659	0.8014	-1.383	-0.70913	3.7128	-36.1332	750.9028	-55.5029	273.7112	74.788	829.3528	-0.0592	0.0182	-0.0073	-0.0462	0.0165	0.9585
8.2497	-0.91742	2.5615	0.85874	-1.3686	-0.82039	3.5955	-31.0805	746.5527	-54.6038	271.5986	71.5214	817.1365	-0.0592	0.0182	-0.0073	-0.0462	0.0165	0.9585
8.2609	-1.0288	2.3754	0.86716	-1.2788	-0.92814	3.3225	-25.6894	741.9841	-53.4531	269.5351	67.8905	804.3554	-0.0592	0.0182	-0.0073	-0.0462	0.0165	0.9585
8.2721	-1.1665	1.9766	0.87619	-1.0854	-1.073	2.7813	-19.8583	737.8384	-52.1948	267.7337	63.9816	791.812	-0.0592	0.0182	-0.0073	-0.0462	0.0165	0.9585
8.2834	-1.3432	1.2725	0.91176	-0.76193	-1.2747	1.8865	-13.5632	734.7181	-51.0429	266.3792	59.9835	780.2401	-0.0592	0.0182	-0.0073	-0.0462	0.0165	0.9585
8.2946	-1.5279	0.16857	0.99145	-0.27737	-1.5276	0.51488	-6.9078	733.013	-50.1975	265.5788	56.1234	770.1365	-0.0592	0.0182	-0.0073	-0.0462	0.0165	0.9585
8.3058	-1.6764	-1.3787	1.1069	0.38477	-1.7941	-1.3944	-0.068386	732.8967	-49.8357	265.3608	52.6452	761.7664	-0.0592	0.0182	-0.0073	-0.0462	0.0165	0.9585
8.317	-1.6925	-3.3305	1.2247	1.2072	-1.9963	-3.8167	6.6552	734.3363	-50.0532	265.6857	49.7527	755.1993	-0.0592	0.0182	-0.0073	-0.0462	0.0165	0.9585
8.3282	-1.4498	-5.5236	1.2971	2.121	-2.0202	-6.5525	12.9717	737.1892	-50.8639	266.4791	47.5717	750.3974	-0.0592	0.0182	-0.0073	-0.0462	0.0165	0.9585
8.3394	-0.75257	-7.5801	1.2295	2.971	-1.6747	-9.1382	18.5895	741.192	-52.2238	267.6313	46.1669	747.1892	-0.0592	0.0182	-0.0073	-0.0462	0.0165	0.9585
8.3506	0.61049	-8.8326	0.90677	3.4827	-0.72626	-10.7438	23.3024	745.9765	-53.9903	269.004	45.4897	745.2638	-0.0592	0.0182	-0.0073	-0.0462	0.0165	0.9585
8.3619	2.895	-8.2368	0.16124	3.2282	1.1257	-10.0884	27.0486	751.1009	-56.0019	270.4354	45.4229	744.2132	-0.0592	0.0182	-0.0073	-0.0462	0.0165	0.9585
8.3731	6.2873	-4.3196	-1.1658	1.6091	4.1529	-5.3548	29.9584	755.987	-58.0738	271.7275	45.7515	743.4307	-0.0592	0.0182	-0.0073	-0.0462	0.0165	0.9585
8.3843	10.8688	4.7861	-3.2352	-2.1309	8.5794	5.7517	32.3176	759.9357	-60.0599	272.6417	46.237	742.1669	-0.0592	0.0182	-0.0073	-0.0462	0.0165	0.9585
8.3955	16.4572	21.2008	-6.1424	-8.8394	14.4411	25.8459	34.5006	762.0048	-61.8048	272.8647	46.5986	739.4243	-0.0592	0.0182	-0.0073	-0.0462	0.0165	0.9585
8.4067	22.4543	46.9033	-9.8433	-19.3023	21.4307	57.3756	36.8418	761.0591	-63.1381	272.0184	46.5569	734.0384	-0.0592	0.0182	-0.0073	-0.0462	0.0165	0.9585
8.4179	27.6271	83.1507	-14.0626	-34.0031	28.6891	101.9139	39.5411	755.7935	-63.8445	269.6678	45.8403	724.7272	-0.0592	0.0182	-0.0073	-0.0462	0.0165	0.9585
8.4291	29.9956	129.6079	-18.1108	-52.772	34.5533	159.0754	42.6143	744.7651	-63.6519	265.3353	44.1939	710.136	-0.0592	0.0182	-0.0073	-0.0462	0.0165	0.9585
8.4404	27.4206	183.8717	-20.8823	-74.5933	36.8215	225.9637	45.8986	726.5641	-62.3018	258.5503	41.4493	688.9967	-0.0592	0.0182	-0.0073	-0.0462	0.0165	0.9585
8.4516	19.3366	241.9464	-21.0247	-97.7648	33.6058	297.6888	49.0897	700.0018	-59.55	248.9122	37.5107	660.3096	-0.0592	0.0182	-0.0073	-0.0462	0.0165	0.9585
8.4628	7.9553	299.111	-17.2206	-120.2958	24.2332	368.2702	51.8039	664.2873	-55.3212	236.1452	32.468	623.4683	-0.0592	0.0182	-0.0073	-0.0462	0.0165	0.9585
8.474	-4.0469	351.3553	-9.5939	-140.5993	9.9595	432.3534	53.6408	619.1652	-49.7229	220.1439	26.5801	578.3634	-0.0592	0.0182	-0.0073	-0.0462	0.0165	0.9585
8.4852	-14.9781	397.3865	0.53956	-158.2157	-6.87	488.0365	54.1966	565.0041	-43.0611	201.0095	20.2723	525.4672	-0.0592	0.0182	-0.0073	-0.0462	0.0165	0.9585
8.4964	-23.9415	438.3978	11.5059	-173.7089	-23.7908	536.6338	53.1685	502.9678	-35.7642	179.1157	14.032	465.9448	-0.0592	0.0182	-0.0073	-0.0462	0.0165	0.9585
8.5076	-30.5577	476.1919	21.7361	-187.9061	-38.7522	580.3975	50.3367	435.0431	-28.3061	155.1286	8.3398	401.6687	-0.0592	0.0182	-0.0073	-0.0462	0.0165	0.9585
8.5189	-34.9015	512.116	30.3631	-201.433	-50.688	621.0471	45.6734	363.9522	-21.1565	129.9844	3.6003	335.1125	-0.0592	0.0182	-0.0073	-0.0462	0.0165	0.9585
8.5301	-37.2057	546.6912	36.6318	-214.5758	-58.8466	659.2529	39.3576	293.0405	-14.7286	104.8465	0.092224	269.2829	-0.0592	0.0182	-0.0073	-0.0462	0.0165	0.9585
8.5413	-37.6441	579.8234	40.7443	-227.3157	-63.5508	694.9449	31.8982	225.8222	-9.3558	80.9568	-2.0902	207.275	-0.0592	0.0182	-0.0073	-0.0462	0.0165	0.9585
8.5525	-36.5713	611.2306	43.1027	-239.5214	-65.4725	727.8807	24.0873	165.5384	-5.2302	59.4677	-3.0698	151.9256	-0.0592	0.0182	-0.0073	-0.0462	0.0165	0.9585
8.5637	-34.2592	640.5995	44.3442	-251.0265	-65.524	757.7864	16.8098	114.4368	-2.3589	41.1972	-3.1477	105.121	-0.0592	0.0182	-0.0073	-0.0462	0.0165	0.9585
8.5749	-31.1336	667.5934	45.1039	-261.6445	-64.6437	784.428	10.6644	73.4993	-0.57127	26.5209	-2.6734	67.6631	-0.0592	0.0182	-0.0073	-0.0462	0.0165	0.9585
8.5861	-27.5957	691.6526	45.8566	-271.1243	-63.5788	807.2093	5.894	42.5121	0.38243	15.3897	-1.9364	39.2938	-0.0592	0.0182	-0.0073	-0.0462	0.0165	0.9585
8.5974	-24.0929	712.3633	47.0519	-279.2696	-63.0054	825.7941	2.4191	20.5239	0.76375	7.477	-1.1346	19.1403	-0.0592	0.0182	-0.0073	-0.0462	0.0165	0.9585
8.6086	-20.845	729.6687	48.6114	-286.0655	-62.953	840.1354	0.093569	6.1559	0.79117	2.2955	-0.40413	5.9434	-0.0592	0.0182	-0.0073	-0.0462	0.0165	0.9585
8.6198	-18.0167	743.9307	50.3844	-291.6558	-63.3042	850.7575	-1.2906	-2.1677	0.63971	-0.71581	0.16815	-1.7153	-0.0592	0.0182	-0.0073	-0.0462	0.0165	0.9585
8.631	-15.5757	755.3958	51.9826	-296.166	-63.6332	857.9663	-1.9618	-6.0833	0.40735	-2.1399	0.57447	-5.3274	-0.0592	0.0182	-0.0073	-0.0462	0.0165	0.9585
8.6422	-13.5822	764.1836	53.2114	-299.6451	-63.7311	861.9858	-2.1604	-7.0814	0.17192	-2.5098	0.82499	-6.2446	-0.0592	0.0182	-0.0073	-0.0462	0.0165	0.9585
8.6534	-11.8985	770.2568	54.0646	-302.0783	-63.5278	862.8189	-2.0714	-6.3819	-0.031893	-2.2634	0.94997	-5.5967	-0.0592	0.0182	-0.0073	-0.0462	0.0165	0.9585
8.6646	-10.4385	773.7373	54.5779	-303.4914	-63.0242	860.6913	-1.8402	-4.8534	-0.19031	-1.7179	0.98211	-4.1742	-0.0592	0.0182	-0.0073	-0.0462	0.0165	0.9585
8.6759	-9.0302	774.7686	54.9347	-303.9237	-62.3526	855.8097	-1.5649	-3.0836	-0.29055	-1.0868	0.94402	-2.5026	-0.0592	0.0182	-0.0073	-0.0462	0.0165	0.9585
8.6871	-7.6112	773.6341	55.1333	-303.4657	-61.5041	848.5867	-1.2989	-1.4215	-0.35765	-0.49816	0.88386	-0.91352	-0.0592	0.0182	-0.0073	-0.0462	0.0165	0.9585
8.6983	-6.1021	770.6429	55.2504	-302.2283	-60.5419	839.4269	-1.0853	-0.041061	-0.38456	-0.013201	0.81827	0.42403	-0.0592	0.0182	-0.0073	-0.0462	0.0165	0.9585
8.7095	-4.5174	766.22	55.1859	-300.3663	-59.3786	828.8982	-0.92274	0.98869	-0.40028	0.34581	0.77739	1.4284	-0.0592	0.0182	-0.0073	-0.0462	0.0165	0.9585
8.7207	-2.8485	760.7873	54.9153	-298.0353	-57.9944	817.513	-0.8229	1.6978	-0.39588	0.59109	0.74883	2.1218	-0.0592	0.0182	-0.0073	-0.0462	0.0165	0.9585
8.7319	-1.1857	754.7467	54.4407	-295.3765	-56.4206	805.7848	-0.76135	2.1204	-0.39569	0.73913	0.74248	2.5184	-0.0592	0.0182	-0.0073	-0.0462	0.0165	0.9585
8.7431	0.45447	748.4314	53.7939	-292.5038	-54.705	794.1042	-0.74167	2.346	-0.39364	0.82211	0.74861	2.7218	-0.0592	0.0182	-0.0073	-0.0462	0.0165	0.9585
8.7544	1.9797	742.1271	53.0975	-289.5126	-52.9993	782.8077	-0.73148	2.4156	-0.39073	0.85844	0.75697	2.7564	-0.0592	0.0182	-0.0073	-0.0462	0.0165	0.9585
8.7656	3.4178	736.0709	52.3922	-286.4918	-51.3435	772.1176	-0.75236	2.4122	-0.39443	0.87396	0.77713	2.725	-0.0592	0.0182	-0.0073	-0.0462	0.0165	0.9585
8.7768	4.7989	730.4628	51.7868	-283.5211	-49.8325	762.2204	-0.7641	2.3529	-0.39805	0.87631	0.7918	2.6233	-0.0592	0.0182	-0.0073	-0.0462	0.0165	0.9585
8.788	6.2376	725.4517	51.3075	-280.6725	-48.451	753.1652	-0.81053	2.2907	-0.41878	0.87821	0.82927	2.5355	-0.0592	0.0182	-0.0073	-0.0462	0.0165	0.9585
8.7992	7.8455	721.1668	50.9991	-278.0042	-47.194	745.0129	-0.84803	2.21	-0.44658	0.87572	0.87098	2.4344	-0.0592	0.0182	-0.0073	-0.0462	0.0165	0.9585
8.8104	9.7389	717.7151	50.8572	-275.5646	-46.0047	737.7654	-0.9281	2.133	-0.49539	0.86765	0.94637	2.3703	-0.0592	0.0182	-0.0073	-0.0462	0.0165	0.9585
8.8216	11.9793	715.1777	50.8637	-273.3827	-44.8293	731.4227	-1.0112	2.0031	-0.54903	0.83249	1.0379	2.2411	-0.0592	0.0182	-0.0073	-0.0462	0.0165	0.9585
8.8329	14.6293	713.5961	51.0436	-271.4675	-43.6559	725.9578	-1.1515	1.7909	-0.61808	0.74888	1.1737	2.0269	-0.0592	0.0182	-0.0073	-0.0462	0.0165	0.9585
8.8441	17.6747	712.997	51.4131	-269.8203	-42.4991	721.366	-1.2962	1.3946	-0.6984	0.57899	1.3397	1.5718	-0.0592	0.0182	-0.0073	-0.0462	0.0165	0.9585
8.8553	21.0688	713.4025	52.0714	-268.4369	-41.4708	717.657	-1.4887	0.76288	-0.79275	0.29579	1.5442	0.82753	-0.0592	0.0182	-0.0073	-0.0462	0.0165	0.9585
8.8665	24.7188	714.8683	53.0463	-267.3351	-40.6363	714.8742	-1.6426	-0.22116	-0.90415	-0.13807	1.7586	-0.37406	-0.0592	0.0182	-0.0073	-0.0462	0.0165	0.9585
8.8777	28.517	717.5081	54.3939	-266.5668	-40.0894	713.1351	-1.7586	-1.5838	-1.0127	-0.73281	1.9472	-2.0427	-0.0592	0.0182	-0.0073	-0.0462	0.0165	0.9585
